<svg width="56" height="56" viewBox="0 0 56 56" fill="none" xmlns="http://www.w3.org/2000/svg">
<rect x="4" y="4" width="48" height="48" rx="24" fill="#FEE2E2"/>
<path fill-rule="evenodd" clip-rule="evenodd" d="M28.2466 38.0001C26.8916 38.0001 25.5706 37.9852 24.2636 37.9581C22.5916 37.9251 21.4346 36.8411 21.2456 35.1291C20.9306 32.2891 20.3916 25.5951 20.3866 25.5281C20.3526 25.1151 20.6606 24.7531 21.0736 24.7201C21.4806 24.7091 21.8486 24.9951 21.8816 25.4071C21.8866 25.4751 22.4246 32.1461 22.7366 34.9641C22.8436 35.9371 23.3686 36.4391 24.2946 36.4581C26.7946 36.5112 29.3456 36.5141 32.0956 36.4641C33.0796 36.4451 33.6116 35.9531 33.7216 34.9571C34.0316 32.1631 34.5716 25.4751 34.5776 25.4071C34.6106 24.9951 34.9756 24.7071 35.3846 24.7201C35.7976 24.7541 36.1056 25.1151 36.0726 25.5281C36.0666 25.5961 35.5246 32.3071 35.2126 35.1221C35.0186 36.8691 33.8646 37.9321 32.1226 37.9641C30.7896 37.9871 29.5036 38.0001 28.2466 38.0001Z" fill="#F43F5E"/>
<path fill-rule="evenodd" clip-rule="evenodd" d="M36.708 22.9893H19.75C19.336 22.9893 19 22.6533 19 22.2393C19 21.8253 19.336 21.4893 19.75 21.4893H36.708C37.122 21.4893 37.458 21.8253 37.458 22.2393C37.458 22.6533 37.122 22.9893 36.708 22.9893Z" fill="#F43F5E"/>
<path fill-rule="evenodd" clip-rule="evenodd" d="M33.4403 22.989C32.3023 22.989 31.3143 22.178 31.0903 21.062L30.8473 19.846C30.7963 19.661 30.5853 19.5 30.3453 19.5H26.1123C25.8723 19.5 25.6613 19.661 25.6003 19.892L25.3673 21.062C25.1443 22.178 24.1553 22.989 23.0173 22.989C22.6033 22.989 22.2673 22.653 22.2673 22.239C22.2673 21.825 22.6033 21.489 23.0173 21.489C23.4433 21.489 23.8133 21.185 23.8973 20.767L24.1403 19.551C24.3873 18.619 25.1943 18 26.1123 18H30.3453C31.2633 18 32.0703 18.619 32.3073 19.506L32.5613 20.767C32.6443 21.185 33.0143 21.489 33.4403 21.489C33.8543 21.489 34.1903 21.825 34.1903 22.239C34.1903 22.653 33.8543 22.989 33.4403 22.989Z" fill="#F43F5E"/>
<rect x="4" y="4" width="48" height="48" rx="24" stroke="#FEF2F2" stroke-width="8"/>
</svg>
