<svg width="13" height="14" viewBox="0 0 13 14" fill="none" xmlns="http://www.w3.org/2000/svg">
<path d="M10.8833 5.3125C10.8833 5.3125 10.5213 9.8025 10.3113 11.6938C10.2113 12.5972 9.65327 13.1265 8.73927 13.1432C6.99994 13.1745 5.25861 13.1765 3.51994 13.1398C2.64061 13.1218 2.09194 12.5858 1.99394 11.6985C1.78261 9.7905 1.42261 5.3125 1.42261 5.3125" stroke="#EF4444" stroke-linecap="round" stroke-linejoin="round"/>
<path d="M11.8055 3.15951H0.500122" stroke="#EF4444" stroke-linecap="round" stroke-linejoin="round"/>
<path d="M9.62707 3.15998C9.10374 3.15998 8.65307 2.78998 8.55041 2.27732L8.38841 1.46665C8.28841 1.09265 7.94974 0.833984 7.56374 0.833984H4.74174C4.35574 0.833984 4.01707 1.09265 3.91707 1.46665L3.75507 2.27732C3.65241 2.78998 3.20174 3.15998 2.67841 3.15998" stroke="#EF4444" stroke-linecap="round" stroke-linejoin="round"/>
</svg>
