<svg width="300" height="348" viewBox="0 0 300 348" fill="none" xmlns="http://www.w3.org/2000/svg">
<g opacity="0.9">
<rect x="196.57" y="171.119" width="10.2888" height="176.534" fill="#C4CDD7"/>
<rect x="190.072" y="171.119" width="7.03971" height="176.534" fill="#DEE3EB"/>
<path fill-rule="evenodd" clip-rule="evenodd" d="M138.087 149.011C138.087 128.024 155.1 111.011 176.087 111.011H187.058C217.434 111.011 242.058 135.981 242.058 166.356C242.058 168.783 240.316 170.885 237.927 171.307L179.472 181.623L138.087 171.661V149.011Z" fill="#B6BFC9"/>
<path fill-rule="evenodd" clip-rule="evenodd" d="M138.086 131.589C138.086 120.225 147.299 111.012 158.664 111.012C170.029 111.012 179.242 120.225 179.242 131.589V181.95L138.086 171.662V131.589Z" fill="url(#paint0_linear_1580_67456)"/>
<mask id="mask0_1580_67456" style="mask-type:alpha" maskUnits="userSpaceOnUse" x="138" y="111" width="42" height="71">
<path fill-rule="evenodd" clip-rule="evenodd" d="M138.086 131.589C138.086 120.225 147.299 111.012 158.664 111.012C170.029 111.012 179.242 120.225 179.242 131.589V181.95L138.086 171.662V131.589Z" fill="white"/>
</mask>
<g mask="url(#mask0_1580_67456)">
<path fill-rule="evenodd" clip-rule="evenodd" d="M135.276 171.739L189.892 165.63L227.265 171.197L179.272 181.945L135.276 171.739Z" fill="#8996A3"/>
</g>
<path fill-rule="evenodd" clip-rule="evenodd" d="M137.83 171.281L124.953 190.642C117.352 202.07 122.974 217.592 136.129 221.503C144.839 224.092 154.212 220.611 159.119 212.963L179.093 181.833L137.83 171.281Z" fill="#CCD3D8"/>
<path opacity="0.3" d="M155.287 150.045C142.749 146.375 120.728 146.702 112.459 125.252C104.88 105.593 132.838 86.6719 140.66 94.9557C146.202 100.826 139.098 109.291 129.239 108.34C118.143 107.269 111.584 97.3458 113.772 86.6719C118.112 65.499 151.48 51.4905 152.887 50.5146" stroke="#5C738E" stroke-width="3" stroke-dasharray="6 7"/>
<circle cx="201.986" cy="150" r="8.66426" fill="#9DACB9"/>
<path fill-rule="evenodd" clip-rule="evenodd" d="M219.99 137.243L204.545 152.687C203.277 153.956 201.219 153.956 199.951 152.687C198.682 151.418 198.682 149.361 199.951 148.092L217.334 130.709C217.471 130.492 217.634 130.287 217.823 130.098C219.198 128.723 221.426 128.723 222.801 130.098L228.928 136.224C230.302 137.599 230.302 139.828 228.928 141.202C227.553 142.577 225.324 142.577 223.95 141.202L219.99 137.243Z" fill="white"/>
<ellipse opacity="0.4" cx="151.282" cy="38.6323" rx="5.40683" ry="7.11586" transform="rotate(-45 151.282 38.6323)" fill="#438ADB"/>
<ellipse opacity="0.4" cx="165.044" cy="51.8824" rx="5.40683" ry="7.11586" transform="rotate(135 165.044 51.8824)" fill="#438ADB"/>
<path d="M153.724 48.1894C153.724 43.7159 157.35 40.0894 161.824 40.0894H163.063V41.3136C163.063 45.7871 159.436 49.4136 154.963 49.4136H153.724V48.1894Z" fill="#6DA4E3"/>
<mask id="mask1_1580_67456" style="mask-type:alpha" maskUnits="userSpaceOnUse" x="153" y="40" width="11" height="10">
<path d="M153.724 48.1894C153.724 43.7159 157.35 40.0894 161.824 40.0894H163.063V41.3136C163.063 45.7871 159.436 49.4136 154.963 49.4136H153.724V48.1894Z" fill="white"/>
</mask>
<g mask="url(#mask1_1580_67456)">
<rect x="152.089" y="42.6826" width="1.47459" height="10.7965" transform="rotate(-45 152.089 42.6826)" fill="#438ADB"/>
<path fill-rule="evenodd" clip-rule="evenodd" d="M155.038 40.2292L156.081 39.1865L163.715 46.8208L162.672 47.8635L155.038 40.2292Z" fill="#438ADB"/>
</g>
<path d="M168.078 37.7533L171.665 36.8996" stroke="#2E7DD7" stroke-width="0.9"/>
<path d="M166.603 36.2803L167.983 32.7295" stroke="#2E7DD7" stroke-width="0.9"/>
<ellipse cx="164.538" cy="39.1076" rx="3.93224" ry="3.92599" fill="#2E7DD7"/>
<path fill-rule="evenodd" clip-rule="evenodd" d="M236.101 0C241.372 0 246.11 2.21285 249.381 5.73277C253.376 2.17189 258.693 0 264.531 0C276.942 0 287.004 9.81903 287.004 21.9314C287.004 22.5161 286.98 23.0955 286.934 23.6687C294.647 27.1429 300 34.7574 300 43.5921C300 55.7044 289.939 65.5235 277.527 65.5235C270.287 65.5235 263.847 62.1823 259.737 56.9939C255.681 62.1476 248.912 65.5236 241.246 65.5236C231.725 65.5236 223.587 60.3163 220.312 52.9633C219.629 53.0328 218.934 53.0685 218.231 53.0685C207.464 53.0685 198.736 44.7041 198.736 34.3862C198.736 24.0682 207.464 15.7039 218.231 15.7039L218.308 15.704C219.153 6.89548 226.797 0 236.101 0Z" fill="url(#paint1_linear_1580_67456)"/>
<path fill-rule="evenodd" clip-rule="evenodd" d="M37.3645 33.0327C42.6354 33.0327 47.3733 35.2456 50.6441 38.7655C54.6395 35.2046 59.957 33.0327 65.7942 33.0327C78.2057 33.0327 88.2671 42.8517 88.2671 54.9641C88.2671 55.5488 88.2437 56.1282 88.1977 56.7014C95.9108 60.1756 101.264 67.7901 101.264 76.6248C101.264 88.7371 91.2021 98.5562 78.7907 98.5562C71.5507 98.5562 65.1105 95.2151 61.0004 90.0266C56.9445 95.1804 50.1751 98.5563 42.5091 98.5563C32.9882 98.5563 24.8502 93.349 21.576 85.996C20.8921 86.0655 20.1977 86.1012 19.4946 86.1012C8.72802 86.1012 0 77.7368 0 67.4189C0 57.1009 8.72802 48.7366 19.4946 48.7366L19.572 48.7367C20.4166 39.9282 28.0601 33.0327 37.3645 33.0327Z" fill="url(#paint2_linear_1580_67456)"/>
</g>
<defs>
<linearGradient id="paint0_linear_1580_67456" x1="138.085" y1="175.899" x2="172.22" y2="175.899" gradientUnits="userSpaceOnUse">
<stop stop-color="#C9D0D8"/>
<stop offset="1" stop-color="#99A3B0"/>
</linearGradient>
<linearGradient id="paint1_linear_1580_67456" x1="216.798" y1="23.3742" x2="216.798" y2="65.5235" gradientUnits="userSpaceOnUse">
<stop stop-color="white"/>
<stop offset="1" stop-color="white" stop-opacity="0.158486"/>
</linearGradient>
<linearGradient id="paint2_linear_1580_67456" x1="18.0619" y1="56.4069" x2="18.0619" y2="98.5562" gradientUnits="userSpaceOnUse">
<stop stop-color="white"/>
<stop offset="1" stop-color="white" stop-opacity="0.158486"/>
</linearGradient>
</defs>
</svg>
