<svg width="250" height="218" viewBox="0 0 250 218" fill="none" xmlns="http://www.w3.org/2000/svg">
<path d="M4.29933 181.22C6.67379 181.22 8.59867 179.295 8.59867 176.92C8.59867 174.546 6.67379 172.621 4.29933 172.621C1.92488 172.621 0 174.546 0 176.92C0 179.295 1.92488 181.22 4.29933 181.22Z" fill="#2E7DD7"/>
<path d="M250 40.6091C249.998 41.459 249.744 42.2893 249.271 42.995C248.797 43.7007 248.125 44.2502 247.339 44.5741C246.553 44.8979 245.689 44.9816 244.856 44.8146C244.023 44.6476 243.257 44.2374 242.657 43.6357C242.057 43.034 241.648 42.2679 241.483 41.4342C241.318 40.6005 241.404 39.7366 241.73 38.9516C242.055 38.1665 242.606 37.4957 243.313 37.0237C244.02 36.5517 244.851 36.2998 245.701 36.2998C246.266 36.2998 246.826 36.4113 247.348 36.628C247.871 36.8447 248.345 37.1623 248.744 37.5626C249.144 37.9629 249.46 38.438 249.676 38.9608C249.891 39.4835 250.001 40.0437 250 40.6091Z" fill="#2E7DD7"/>
<path d="M34.4944 188.024C34.4943 188.242 34.4297 188.454 34.3087 188.635C34.1877 188.815 34.0158 188.956 33.8147 189.039C33.6136 189.122 33.3924 189.143 33.1793 189.099C32.9662 189.056 32.7707 188.951 32.6177 188.796C32.4646 188.642 32.3609 188.445 32.3197 188.232C32.2785 188.018 32.3016 187.798 32.3862 187.597C32.4708 187.397 32.613 187.226 32.7947 187.107C32.9765 186.988 33.1896 186.925 33.4071 186.927C33.6963 186.929 33.9729 187.046 34.1765 187.252C34.3801 187.457 34.4944 187.735 34.4944 188.024Z" fill="#2E7DD7"/>
<path d="M57.8269 67.5026C57.8269 67.7196 57.7625 67.9317 57.6419 68.1122C57.5214 68.2926 57.35 68.4333 57.1495 68.5163C56.949 68.5994 56.7284 68.6211 56.5155 68.5787C56.3027 68.5364 56.1072 68.4319 55.9537 68.2784C55.8003 68.125 55.6957 67.9295 55.6534 67.7166C55.6111 67.5038 55.6328 67.2831 55.7158 67.0826C55.7989 66.8821 55.9395 66.7108 56.12 66.5902C56.3004 66.4696 56.5126 66.4053 56.7296 66.4053C57.0206 66.4053 57.2997 66.5209 57.5055 66.7267C57.7113 66.9324 57.8269 67.2115 57.8269 67.5026Z" fill="#2E7DD7"/>
<path d="M228.393 126.087C228.393 126.304 228.329 126.517 228.208 126.697C228.087 126.878 227.915 127.019 227.714 127.101C227.512 127.184 227.291 127.205 227.078 127.162C226.865 127.119 226.67 127.013 226.517 126.859C226.364 126.704 226.26 126.508 226.219 126.294C226.177 126.081 226.201 125.86 226.285 125.66C226.37 125.459 226.512 125.289 226.694 125.169C226.875 125.05 227.089 124.987 227.306 124.989C227.45 124.989 227.592 125.018 227.724 125.073C227.857 125.128 227.977 125.209 228.078 125.311C228.179 125.413 228.259 125.534 228.313 125.667C228.367 125.801 228.395 125.943 228.393 126.087Z" fill="#2E7DD7"/>
<path d="M243.586 75.1235C243.588 75.3413 243.525 75.5548 243.405 75.7368C243.286 75.9188 243.114 76.061 242.913 76.1452C242.712 76.2295 242.491 76.2521 242.277 76.2101C242.063 76.1681 241.867 76.0633 241.713 75.9093C241.559 75.7552 241.454 75.5588 241.412 75.345C241.37 75.1313 241.393 74.9098 241.477 74.7089C241.561 74.508 241.704 74.3367 241.885 74.2169C242.067 74.0971 242.281 74.0342 242.499 74.0362C242.787 74.0362 243.064 74.1507 243.268 74.3546C243.472 74.5585 243.586 74.8351 243.586 75.1235Z" fill="#2E7DD7"/>
<path d="M192.086 24.988L124.255 0L57.0712 24.6588C48.4925 28.8085 40.9711 31.3023 40.9711 39.492V80.3307C40.8312 108.912 48.4838 136.991 63.1062 161.549C75.6351 182.408 95.027 203.884 124.953 217.54C152.415 208.393 172.914 184.004 185.443 163.135C200.066 138.581 207.719 110.505 207.578 81.9268V45.1979C207.528 33.5069 201.493 27.801 192.086 24.988Z" fill="#2E7DD7"/>
<g opacity="0.8">
<path d="M192.086 24.988L124.255 0L57.0712 24.6588C48.4925 28.8085 40.9711 31.3023 40.9711 39.492V80.3307C40.8312 108.912 48.4838 136.991 63.1062 161.549C75.6351 182.408 95.027 203.884 124.953 217.54C152.415 208.393 172.914 184.004 185.443 163.135C200.066 138.581 207.719 110.505 207.578 81.9268V45.1979C207.528 33.5069 201.493 27.801 192.086 24.988Z" fill="white"/>
</g>
<path d="M165.672 128.293H153.203V60.461C153.203 52.7795 150.152 45.4126 144.72 39.9809C139.288 34.5493 131.921 31.4978 124.24 31.4978C116.558 31.4978 109.192 34.5493 103.76 39.9809C98.3283 45.4126 95.2768 52.7795 95.2768 60.461V128.293H82.8077V60.461C82.7225 54.9659 83.7311 49.5088 85.775 44.4073C87.8189 39.3058 90.8572 34.6618 94.713 30.7457C98.5688 26.8296 103.165 23.7197 108.234 21.5969C113.303 19.4741 118.744 18.3809 124.24 18.3809C129.736 18.3809 135.176 19.4741 140.246 21.5969C145.315 23.7197 149.911 26.8296 153.767 30.7457C157.623 34.6618 160.661 39.3058 162.705 44.4073C164.749 49.5088 165.757 54.9659 165.672 60.461V128.293Z" fill="#2E7DD7"/>
<g opacity="0.4">
<path d="M165.672 128.292H153.203V60.46C153.203 52.7785 150.152 45.4116 144.72 39.9799C139.288 34.5483 131.921 31.4968 124.24 31.4968C116.558 31.4968 109.192 34.5483 103.76 39.9799C98.3283 45.4116 95.2768 52.7785 95.2768 60.46V128.292H82.8077V60.46C82.7225 54.9649 83.7311 49.5078 85.775 44.4063C87.8189 39.3048 90.8572 34.6608 94.713 30.7448C98.5688 26.8287 103.165 23.7187 108.234 21.5959C113.303 19.4731 118.744 18.3799 124.24 18.3799C129.736 18.3799 135.176 19.4731 140.246 21.5959C145.315 23.7187 149.911 26.8287 153.767 30.7448C157.623 34.6608 160.661 39.3048 162.705 44.4063C164.749 49.5078 165.757 54.9649 165.672 60.46V128.292Z" fill="#334155"/>
</g>
<path d="M174.281 98.1074H74.1989C70.9981 98.1074 68.4033 100.702 68.4033 103.903V163.954C68.4033 167.155 70.9981 169.75 74.1989 169.75H174.281C177.482 169.75 180.076 167.155 180.076 163.954V103.903C180.076 100.702 177.482 98.1074 174.281 98.1074Z" fill="#2E7DD7"/>
<g opacity="0.5">
<path d="M133.571 124.602C133.572 122.864 133.089 121.161 132.175 119.684C131.261 118.206 129.952 117.013 128.397 116.238C126.842 115.464 125.102 115.138 123.372 115.299C121.642 115.459 119.991 116.099 118.605 117.146C117.219 118.194 116.153 119.607 115.526 121.228C114.899 122.848 114.737 124.611 115.058 126.319C115.378 128.026 116.169 129.61 117.341 130.893C118.513 132.176 120.019 133.106 121.691 133.579V147.545H126.788V133.579C128.744 133.028 130.465 131.853 131.69 130.232C132.915 128.611 133.575 126.633 133.571 124.602Z" fill="#334155"/>
</g>
<path d="M74.3588 162.955C74.0994 162.955 73.8999 150.985 73.8999 136.272C73.8999 121.558 74.0994 109.588 74.3588 109.588C74.6181 109.588 74.8276 121.558 74.8276 136.272C74.8276 150.985 74.6181 162.955 74.3588 162.955Z" fill="#FAFAFA"/>
<path d="M116.933 136.561C116.933 136.561 116.494 136.421 115.836 135.942C114.913 135.253 114.102 134.425 113.432 133.488C112.267 131.952 111.457 130.177 111.059 128.291C110.661 126.404 110.685 124.453 111.129 122.577C111.573 120.701 112.427 118.947 113.629 117.439C114.83 115.932 116.35 114.708 118.08 113.857C119.115 113.323 120.225 112.95 121.372 112.75C121.781 112.638 122.21 112.614 122.629 112.68C122.629 112.86 120.863 113.029 118.439 114.436C116.857 115.311 115.475 116.507 114.383 117.947C113.29 119.387 112.511 121.04 112.094 122.8C111.678 124.559 111.635 126.386 111.966 128.163C112.298 129.94 112.997 131.628 114.02 133.119C114.896 134.344 115.87 135.495 116.933 136.561Z" fill="#FAFAFA"/>
<path d="M208.156 201.69C208.156 201.69 208.425 201.311 208.964 200.603L209.413 200.005C209.572 199.775 209.712 199.506 209.872 199.216C210.269 198.569 210.603 197.884 210.869 197.172C211.029 196.763 211.218 196.344 211.378 195.885C211.538 195.426 211.647 194.887 211.787 194.408C211.95 193.871 212.063 193.32 212.126 192.762C212.245 192.162 212.332 191.556 212.385 190.947C212.621 188.026 212.487 185.086 211.986 182.199C210.989 175.645 208.196 167.944 203.946 159.565C199.017 150.117 193.241 141.136 186.689 132.731C178.802 122.495 170.201 112.829 160.953 103.803C150.388 93.406 139.101 83.7692 127.177 74.9647C120.863 70.3362 114.209 65.8373 107.226 61.5979C100.089 57.2479 92.6787 53.3628 85.0414 49.9667C77.1698 46.3705 68.8791 43.7734 60.3626 42.2359C56.0152 41.4631 51.5759 41.3521 47.1953 41.9067C45.0043 42.2356 42.8673 42.8562 40.841 43.7521C38.8011 44.6597 36.976 45.9882 35.4855 47.6506C33.995 49.313 32.8728 51.2717 32.1925 53.3982C31.5308 55.5129 31.1583 57.7074 31.0852 59.922C31.0233 64.3375 31.6321 68.7369 32.8907 72.9696C35.3863 81.2579 38.9118 89.2004 43.3847 96.611C47.6274 103.817 52.3322 110.741 57.4698 117.34C62.4574 123.824 67.7044 129.918 73.0212 135.654C83.1264 146.506 93.9866 156.63 105.521 165.949C115.537 174.105 126.114 181.548 137.172 188.224C146.267 193.773 155.846 198.488 165.791 202.309C174.599 205.581 182.569 207.456 189.193 207.715C192.119 207.893 195.057 207.692 197.931 207.117C198.527 206.998 199.117 206.848 199.697 206.668C200.244 206.531 200.781 206.354 201.303 206.139L202.719 205.561C203.158 205.351 203.557 205.112 203.936 204.912C204.614 204.552 205.259 204.131 205.862 203.655C206.121 203.456 206.38 203.296 206.59 203.117L207.129 202.598L208.126 201.67L207.178 202.668L206.64 203.207C206.43 203.386 206.181 203.556 205.912 203.765C205.312 204.247 204.671 204.674 203.996 205.042C203.617 205.252 203.218 205.491 202.779 205.71L201.353 206.299C200.834 206.523 200.296 206.703 199.747 206.838C199.164 207.028 198.571 207.188 197.971 207.316C195.085 207.906 192.135 208.123 189.193 207.965C182.54 207.735 174.539 205.87 165.701 202.628C155.725 198.824 146.116 194.12 136.993 188.573C125.899 181.919 115.295 174.482 105.261 166.318C93.6985 157.003 82.8115 146.879 72.682 136.023C67.3453 130.277 62.1083 124.173 57.0907 117.679C51.9377 111.067 47.2163 104.13 42.9558 96.9103C38.4616 89.4606 34.9162 81.4783 32.4019 73.1492C31.1339 68.857 30.5251 64.3971 30.5964 59.922C30.6674 57.6559 31.0501 55.4103 31.7336 53.2486C32.4264 51.0523 33.5766 49.0278 35.1086 47.3084C36.6405 45.589 38.5195 44.2138 40.6216 43.2733C42.6901 42.3518 44.875 41.7175 47.1155 41.388C51.5486 40.8185 56.0428 40.9295 60.4424 41.7172C69.0023 43.2598 77.334 45.8739 85.2409 49.4979C92.877 52.9095 100.281 56.8182 107.406 61.1989C114.389 65.4483 121.092 69.9571 127.356 74.5956C139.292 83.4303 150.589 93.0971 161.163 103.524C170.406 112.57 178.999 122.256 186.879 132.512C193.425 140.949 199.191 149.964 204.106 159.445C208.336 167.854 211.089 175.595 212.086 182.169C212.578 185.075 212.695 188.031 212.435 190.967C212.383 191.58 212.296 192.189 212.176 192.792C212.097 193.352 211.977 193.906 211.817 194.448C211.667 194.967 211.528 195.446 211.398 195.935C211.268 196.423 211.029 196.812 210.869 197.221C210.587 197.937 210.232 198.622 209.812 199.266C209.642 199.556 209.503 199.825 209.343 200.054L208.874 200.643C208.405 201.341 208.156 201.69 208.156 201.69Z" fill="#2E7DD7"/>
<path d="M240.077 124.61C240.077 124.61 240.027 124.152 239.957 123.264C239.957 123.038 239.937 122.788 239.898 122.516C239.898 122.236 239.778 121.947 239.718 121.618C239.587 120.863 239.387 120.121 239.119 119.403C238.97 118.994 238.83 118.555 238.651 118.107C238.471 117.658 238.202 117.219 237.962 116.73C237.711 116.211 237.418 115.714 237.085 115.244C236.755 114.765 236.476 114.246 236.087 113.727C234.32 111.387 232.262 109.282 229.962 107.463C224.845 103.253 217.643 99.3432 208.904 95.9216C198.935 92.1547 188.645 89.2968 178.161 87.3828C165.466 85.0012 152.619 83.5179 139.716 82.9438C124.908 82.2316 110.068 82.5649 95.3062 83.9414C87.5155 84.6795 79.5553 85.7569 71.5053 87.2631C63.2825 88.7648 55.1656 90.7973 47.2055 93.348C38.9285 95.9022 31.0032 99.4812 23.6141 104.002C19.881 106.325 16.5184 109.197 13.6388 112.52C12.2193 114.221 11.038 116.107 10.1275 118.127C9.21207 120.166 8.73875 122.375 8.73875 124.61C8.73875 126.846 9.21207 129.055 10.1275 131.094C11.0417 133.112 12.2227 134.997 13.6388 136.7C16.5191 140.009 19.8821 142.864 23.6141 145.169C30.9986 149.694 38.9208 153.277 47.1956 155.833C55.155 158.386 63.272 160.419 71.4953 161.918C79.5453 163.434 87.5056 164.502 95.2962 165.24C110.057 166.621 124.898 166.955 139.706 166.237C152.609 165.664 165.456 164.18 178.151 161.798C188.636 159.887 198.926 157.029 208.894 153.259C217.643 149.838 224.855 145.928 229.952 141.718C232.254 139.902 234.313 137.796 236.077 135.454C236.437 134.967 236.77 134.46 237.075 133.937C237.395 133.476 237.675 132.989 237.912 132.481L238.601 131.104C238.78 130.655 238.92 130.217 239.07 129.808C239.337 129.09 239.538 128.348 239.668 127.593C239.728 127.274 239.808 126.975 239.848 126.705C239.888 126.436 239.848 126.177 239.908 125.957C239.977 125.059 240.027 124.61 240.027 124.61C240.027 124.61 240.027 125.069 239.957 125.957C239.957 126.187 239.957 126.436 239.957 126.715C239.957 126.995 239.848 127.284 239.788 127.613C239.664 128.371 239.47 129.115 239.209 129.838C239.06 130.256 238.93 130.695 238.74 131.154L238.072 132.541C237.833 133.052 237.553 133.542 237.234 134.007C236.905 134.496 236.626 135.055 236.237 135.553C234.473 137.917 232.411 140.043 230.102 141.878C224.985 146.127 217.772 150.077 209.024 153.529C199.04 157.319 188.734 160.197 178.231 162.127C165.521 164.538 152.658 166.048 139.736 166.646C124.906 167.387 110.042 167.077 95.2563 165.719C87.4557 164.98 79.4855 163.913 71.4055 162.407C63.1631 160.905 55.0263 158.873 47.0459 156.322C38.7292 153.754 30.7668 150.155 23.3447 145.608C19.5463 143.258 16.123 140.349 13.1899 136.98C11.737 135.237 10.5289 133.304 9.59883 131.234C8.66153 129.136 8.17706 126.864 8.17706 124.566C8.17706 122.268 8.66153 119.995 9.59883 117.897C10.5327 115.833 11.7406 113.903 13.1899 112.161C16.1218 108.79 19.5492 105.884 23.3547 103.543C30.7717 98.9957 38.7313 95.3996 47.0459 92.8393C55.0247 90.2805 63.1618 88.2446 71.4055 86.7444C79.4755 85.2381 87.4457 84.1708 95.2464 83.4326C110.033 82.0768 124.896 81.7701 139.726 82.5149C152.652 83.1144 165.519 84.6312 178.231 87.0536C188.728 88.9926 199.029 91.8806 209.004 95.6822C217.762 99.1437 224.965 103.084 230.092 107.333C232.392 109.176 234.447 111.304 236.207 113.668C236.567 114.161 236.9 114.674 237.204 115.204C237.519 115.672 237.799 116.162 238.042 116.67L238.711 118.067C238.9 118.516 239.03 118.964 239.179 119.373C239.442 120.099 239.635 120.847 239.758 121.608C239.818 121.927 239.888 122.226 239.927 122.506C239.967 122.785 239.927 123.034 239.927 123.254C240.077 124.152 240.077 124.61 240.077 124.61Z" fill="#2E7DD7"/>
<path d="M197.742 28.6593C197.742 28.6593 197.343 28.4199 196.605 27.9311L195.976 27.5221C195.737 27.3825 195.447 27.2628 195.158 27.1131C194.481 26.7572 193.773 26.4634 193.043 26.2353C192.624 26.1056 192.196 25.9361 191.727 25.8064L190.2 25.4672C189.652 25.347 189.095 25.2703 188.535 25.2378C187.946 25.2378 187.348 25.0882 186.709 25.1081C183.776 25.0735 180.85 25.4086 178.001 26.1056C171.547 27.562 164.035 30.8638 155.985 35.6819C146.897 41.2486 138.333 47.629 130.399 54.7446C120.738 63.3167 111.695 72.5602 103.336 82.406C93.6923 93.666 84.8555 105.593 76.8915 118.097C72.7019 124.711 68.6719 131.654 64.9212 138.946C61.0738 146.369 57.7085 154.033 54.8462 161.889C51.8086 169.992 49.7979 178.444 48.8611 187.046C48.3885 191.437 48.587 195.873 49.4496 200.204C49.9213 202.369 50.6864 204.46 51.724 206.418C52.7715 208.385 54.2231 210.109 55.9834 211.476C57.7438 212.842 59.7733 213.821 61.9386 214.349C64.0931 214.866 66.308 215.088 68.5223 215.007C72.9303 214.763 77.2759 213.852 81.4103 212.304C89.5099 209.241 97.194 205.176 104.284 200.204C111.179 195.475 117.76 190.304 123.985 184.722C130.11 179.286 135.835 173.65 141.192 167.944C151.305 157.116 160.638 145.585 169.123 133.439C176.586 122.899 183.296 111.846 189.203 100.361C194.11 90.903 198.154 81.0206 201.283 70.8347C203.936 61.8569 205.273 53.7471 205.064 47.1235C205.039 44.1913 204.637 41.2744 203.867 38.445C203.705 37.8564 203.512 37.277 203.288 36.7093C203.12 36.1747 202.91 35.6544 202.66 35.1532C202.42 34.6744 202.201 34.1557 201.991 33.7766C201.782 33.3975 201.482 32.9686 201.253 32.6095C200.849 31.9559 200.385 31.3414 199.867 30.7741C199.657 30.5247 199.467 30.2853 199.278 30.0858L198.719 29.577C198.061 28.9785 197.722 28.6593 197.722 28.6593L198.719 29.5371L199.278 30.0359C199.477 30.2354 199.667 30.4748 199.886 30.7242C200.417 31.2825 200.888 31.8943 201.293 32.5497C201.532 32.9187 201.802 33.2978 202.051 33.7168L202.729 35.0933C202.992 35.596 203.213 36.1199 203.388 36.6595C203.567 37.2181 203.837 37.7767 203.976 38.4051C204.764 41.2427 205.186 44.1691 205.233 47.1135C205.463 53.767 204.156 61.8769 201.522 70.9145C198.418 81.1307 194.391 91.0436 189.492 100.531C183.609 112.051 176.918 123.141 169.472 133.719C160.989 145.891 151.655 157.448 141.541 168.303C136.174 174.029 130.449 179.675 124.314 185.131C118.074 190.728 111.476 195.913 104.563 200.653C97.4555 205.652 89.7473 209.738 81.6198 212.812C77.4141 214.395 72.9898 215.32 68.5023 215.556C66.2376 215.634 63.9727 215.406 61.769 214.877C59.5347 214.333 57.4404 213.323 55.6234 211.914C53.8064 210.504 52.3076 208.727 51.2252 206.698C50.164 204.696 49.382 202.558 48.901 200.343C48.0309 195.963 47.8291 191.477 48.3025 187.036C49.2565 178.387 51.2907 169.892 54.3574 161.749C57.2317 153.892 60.6103 146.228 64.4723 138.806C68.223 131.504 72.263 124.551 76.4426 117.928C84.4273 105.414 93.2876 93.48 102.957 82.2164C111.345 72.3684 120.419 63.1249 130.11 54.5551C138.091 47.4122 146.709 41.0147 155.856 35.4425C163.956 30.6344 171.487 27.3525 177.981 25.9161C180.841 25.2059 183.782 24.8706 186.729 24.9186C187.343 24.9331 187.956 24.9797 188.565 25.0582C189.129 25.0939 189.689 25.1739 190.24 25.2976L191.757 25.6168C192.225 25.7565 192.654 25.9161 193.073 26.0558C193.806 26.2892 194.514 26.5932 195.188 26.9635C195.487 27.1131 195.767 27.2428 196.006 27.3825L196.625 27.8014C197.373 28.39 197.742 28.6593 197.742 28.6593Z" fill="#2E7DD7"/>
</svg>
