<svg width="20" height="21" viewBox="0 0 20 21" fill="none" xmlns="http://www.w3.org/2000/svg">
<path fill-rule="evenodd" clip-rule="evenodd" d="M5.36837 7.19236C5.78237 7.19236 6.11837 7.52836 6.11837 7.94236C6.11837 8.35636 5.78237 8.69236 5.36837 8.69236H4.43537C2.81637 8.69236 1.50037 10.0084 1.50037 11.6264V16.5014C1.50037 18.1204 2.81637 19.4364 4.43537 19.4364H15.5654C17.1834 19.4364 18.5004 18.1204 18.5004 16.5014V11.6174C18.5004 10.0044 17.1884 8.69236 15.5764 8.69236H14.6334C14.2194 8.69236 13.8834 8.35636 13.8834 7.94236C13.8834 7.52836 14.2194 7.19236 14.6334 7.19236H15.5764C18.0154 7.19236 20.0004 9.17736 20.0004 11.6174V16.5014C20.0004 18.9474 18.0104 20.9364 15.5654 20.9364H4.43537C1.99037 20.9364 0.000366211 18.9474 0.000366211 16.5014V11.6264C0.000366211 9.18137 1.99037 7.19236 4.43537 7.19236H5.36837ZM10.531 0.619965L13.447 3.54796C13.739 3.84196 13.738 4.31596 13.445 4.60796C13.151 4.89996 12.677 4.89996 12.385 4.60596L10.7494 2.96472L10.75 13.9393H9.24997L9.24937 2.96472L7.61597 4.60596C7.46997 4.75396 7.27697 4.82696 7.08497 4.82696C6.89397 4.82696 6.70197 4.75396 6.55597 4.60796C6.26297 4.31596 6.26097 3.84196 6.55397 3.54796L9.46897 0.619965C9.74997 0.336965 10.25 0.336965 10.531 0.619965Z" fill="#374151"/>
</svg>
